# xmcd
#
# Track frame offsets:
#	150
#	24639
#	53478
#	70915
#	94780
#	120628
#	144214
#	163229
#	185842
#	201325
#	222894
#	245205
#	268942
#	290576
#	312818
#
# Disc length: 4399 seconds
#
# Revision: 0
# Processed by: cddbd v1.5.2PL0 Copyright (c) Steve Scherf et al.
# Submitted via: dBpowerAMP V4.0
#
DISCID=eb112d0f
DTITLE=Jamin´ Your Weekend ! - The Beat - 92.3
DYEAR=1995
DGENRE=
TTITLE0=C. J. Lews - Reggae Beat
TTITLE1=Aaron Hall - I Miss You
TTITLE2=Color me Bad - On my Mind
TTITLE3=Jodeci - Freak You
TTITLE4=Xscape - Understanding
TTITLE5=H-Town - A Thin Line Between Love And Hate
TTITLE6=Changing Faces - Stroke You Up
TTITLE7=TLC - Creep
TTITLE8=Method Man and Mary J. Blidge - I´ll be There
TTITLE9=Scarface - People Don´t Believe
TTITLE10=Pauline Henry - Sugar Free
TTITLE11=Brandy - Baby
TTITLE12=Fu-Schnickens - Cray-z
TTITLE13=Coz - Keep
TTITLE14=Diana King - Love Triangle
EXTD=
EXTT0=
EXTT1=
EXTT2=
EXTT3=
EXTT4=
EXTT5=
EXTT6=
EXTT7=
EXTT8=
EXTT9=
EXTT10=
EXTT11=
EXTT12=
EXTT13=
EXTT14=
PLAYORDER=
